<svg width="25" height="25" viewBox="0 0 25 25" fill="none" xmlns="http://www.w3.org/2000/svg">
<mask id="mask0_3_84" style="mask-type:alpha" maskUnits="userSpaceOnUse" x="0" y="0" width="25" height="25">
<rect width="25" height="25" fill="#D9D9D9"/>
</mask>
<g mask="url(#mask0_3_84)">
<path d="M6.09379 17.8125C6.97921 17.1354 7.96879 16.6016 9.06254 16.2109C10.1563 15.8203 11.3021 15.625 12.5 15.625C13.698 15.625 14.8438 15.8203 15.9375 16.2109C17.0313 16.6016 18.0209 17.1354 18.9063 17.8125C19.5139 17.1007 19.987 16.2934 20.3256 15.3906C20.6641 14.4878 20.8334 13.5243 20.8334 12.5C20.8334 10.191 20.0217 8.22482 18.3985 6.60156C16.7752 4.97829 14.8091 4.16666 12.5 4.16666C10.191 4.16666 8.22487 4.97829 6.6016 6.60156C4.97834 8.22482 4.16671 10.191 4.16671 12.5C4.16671 13.5243 4.33598 14.4878 4.67452 15.3906C5.01306 16.2934 5.48615 17.1007 6.09379 17.8125ZM12.5 13.5417C11.4757 13.5417 10.612 13.1901 9.9089 12.487C9.20577 11.7838 8.85421 10.9201 8.85421 9.89583C8.85421 8.87152 9.20577 8.00781 9.9089 7.30468C10.612 6.60156 11.4757 6.25 12.5 6.25C13.5243 6.25 14.3881 6.60156 15.0912 7.30468C15.7943 8.00781 16.1459 8.87152 16.1459 9.89583C16.1459 10.9201 15.7943 11.7838 15.0912 12.487C14.3881 13.1901 13.5243 13.5417 12.5 13.5417ZM12.5 22.9167C11.0591 22.9167 9.7049 22.6432 8.43754 22.0963C7.17018 21.5495 6.06775 20.8073 5.13025 19.8698C4.19275 18.9323 3.45056 17.8299 2.90369 16.5625C2.35681 15.2951 2.08337 13.941 2.08337 12.5C2.08337 11.059 2.35681 9.70486 2.90369 8.4375C3.45056 7.17013 4.19275 6.0677 5.13025 5.1302C6.06775 4.1927 7.17018 3.45052 8.43754 2.90364C9.7049 2.35677 11.0591 2.08333 12.5 2.08333C13.941 2.08333 15.2952 2.35677 16.5625 2.90364C17.8299 3.45052 18.9323 4.1927 19.8698 5.1302C20.8073 6.0677 21.5495 7.17013 22.0964 8.4375C22.6433 9.70486 22.9167 11.059 22.9167 12.5C22.9167 13.941 22.6433 15.2951 22.0964 16.5625C21.5495 17.8299 20.8073 18.9323 19.8698 19.8698C18.9323 20.8073 17.8299 21.5495 16.5625 22.0963C15.2952 22.6432 13.941 22.9167 12.5 22.9167ZM12.5 20.8333C13.4202 20.8333 14.2882 20.6988 15.1042 20.4297C15.9202 20.1606 16.6667 19.7743 17.3438 19.2708C16.6667 18.7674 15.9202 18.3811 15.1042 18.112C14.2882 17.8429 13.4202 17.7083 12.5 17.7083C11.5799 17.7083 10.7118 17.8429 9.89587 18.112C9.0799 18.3811 8.33337 18.7674 7.65629 19.2708C8.33337 19.7743 9.0799 20.1606 9.89587 20.4297C10.7118 20.6988 11.5799 20.8333 12.5 20.8333ZM12.5 11.4583C12.9514 11.4583 13.3247 11.3108 13.6198 11.0156C13.915 10.7205 14.0625 10.3472 14.0625 9.89583C14.0625 9.44444 13.915 9.07118 13.6198 8.77604C13.3247 8.4809 12.9514 8.33333 12.5 8.33333C12.0487 8.33333 11.6754 8.4809 11.3802 8.77604C11.0851 9.07118 10.9375 9.44444 10.9375 9.89583C10.9375 10.3472 11.0851 10.7205 11.3802 11.0156C11.6754 11.3108 12.0487 11.4583 12.5 11.4583Z" fill="white"/>
</g>
</svg>
